<?xml version="1.0" standalone="no"?>
<!DOCTYPE svg PUBLIC "-//W3C//DTD SVG 1.1//EN" "http://www.w3.org/Graphics/SVG/1.1/DTD/svg11.dtd">
<svg t="1609902016909" class="icon" viewBox="0 0 1024 1024" version="1.1" xmlns="http://www.w3.org/2000/svg" p-id="1097" xmlns:xlink="http://www.w3.org/1999/xlink" width="2rem" height="2rem">
  <defs>
    <style type="text/css"></style>
  </defs>
  <path d="M957.046154 452.923077H303.261538c-17.723077 0-25.6-21.661538-13.784615-33.476923l189.046154-189.046154c11.815385-11.815385 11.815385-29.538462 0-41.353846l-43.323077-43.323077c-11.815385-11.815385-29.538462-11.815385-41.353846 0L49.230769 492.307692c-11.815385 11.815385-11.815385 29.538462 0 41.353846L393.846154 878.276923c11.815385 11.815385 29.538462 11.815385 41.353846 0l41.353846-41.353846c11.815385-11.815385 11.815385-29.538462 0-41.353846l-189.046154-189.046154c-11.815385-13.784615-3.938462-35.446154 13.784616-35.446154h653.784615c15.753846 0 29.538462-11.815385 29.538462-27.569231v-59.076923c0-15.753846-11.815385-31.507692-27.569231-31.507692z" p-id="1098" fill="#ffffff"></path>
</svg>