<svg t="1588299567166" width="2em" height="2em" viewBox="0 0 1024 1024" version="1.1" xmlns="http://www.w3.org/2000/svg" p-id="1906" xmlns:xlink="http://www.w3.org/1999/xlink">
  <defs><style type="text/css"></style></defs>
  <path d="M768 128l0 85.333333-85.333333 0 0-85.333333-341.333333 0 0 85.333333-85.333333 0 0-85.333333-85.333333 0 0 768 85.333333 0 0-85.333333 85.333333 0 0 85.333333 341.333333 0 0-85.333333 85.333333 0 0 85.333333 85.333333 0 0-768-85.333333 0zM341.333333 725.333333l-85.333333 0 0-85.333333 85.333333 0 0 85.333333zM341.333333 554.666667l-85.333333 0 0-85.333333 85.333333 0 0 85.333333zM341.333333 384l-85.333333 0 0-85.333333 85.333333 0 0 85.333333zM768 725.333333l-85.333333 0 0-85.333333 85.333333 0 0 85.333333zM768 554.666667l-85.333333 0 0-85.333333 85.333333 0 0 85.333333zM768 384l-85.333333 0 0-85.333333 85.333333 0 0 85.333333z" p-id="1907" fill="#ffffff"></path>
</svg>